<?xml version="1.0" encoding="utf-8"?>
<!-- Generator: Adobe Illustrator 23.1.0, SVG Export Plug-In . SVG Version: 6.00 Build 0)  -->
<svg version="1.1" id="Layer_1" xmlns="http://www.w3.org/2000/svg" xmlns:xlink="http://www.w3.org/1999/xlink" x="0px" y="0px"
	 viewBox="0 0 265 50" style="enable-background:new 0 0 265 50;" xml:space="preserve">
<style type="text/css">
	.st0{fill:#06BB43;}
</style>
<polygon class="st0" points="262,16.3 262,8.8 258,8.8 258,3.8 252,3.8 252,0 245,0 20,0 13,0 13,3.8 7,3.8 7,8.8 3,8.8 3,16.3 
	0,16.3 0,33.8 3,33.8 3,41.3 7,41.3 7,46.3 13,46.3 13,50 20,50 245,50 252,50 252,46.3 258,46.3 258,41.3 262,41.3 262,33.8 
	265,33.8 265,16.3 "/>
</svg>
